<mxfile host="app.diagrams.net" modified="2023-06-01T18:39:17.679Z" agent="Mozilla/5.0 (iPad; CPU OS 16_3 like Mac OS X) AppleWebKit/605.1.15 (KHTML, like Gecko) Version/16.3 Mobile/15E148 Safari/605.1.15 BingSapphire/1.0.410427012" version="21.3.6" etag="x1bq93-AIo166KaFpw4k" type="github">
  <diagram name="第 1 页" id="ZelzDNmjkl__VXy_bF3u">
    <mxGraphModel>
      <root>
        <mxCell id="0" />
        <mxCell id="1" parent="0" />
      </root>
    </mxGraphModel>
  </diagram>
</mxfile>
